<?xml version="1.0" encoding="UTF-8" standalone="no" ?>
<!DOCTYPE svg PUBLIC "-//W3C//DTD SVG 1.1//EN" "http://www.w3.org/Graphics/SVG/1.1/DTD/svg11.dtd">
<svg xmlns="http://www.w3.org/2000/svg" xmlns:xlink="http://www.w3.org/1999/xlink" version="1.1" width="1080" height="1080" viewBox="0 0 1080 1080" xml:space="preserve">
<desc>Created with Fabric.js 5.2.4</desc>
<defs>
</defs>
<g transform="matrix(1 0 0 1 540 540)" id="9b98af45-cd88-40bb-ac73-f2a8a8103a1c"  >
<rect style="stroke: none; stroke-width: 1; stroke-dasharray: none; stroke-linecap: butt; stroke-dashoffset: 0; stroke-linejoin: miter; stroke-miterlimit: 4; fill: rgb(255,255,255); fill-rule: nonzero; opacity: 1; visibility: hidden;" vector-effect="non-scaling-stroke"  x="-540" y="-540" rx="0" ry="0" width="1080" height="1080" />
</g>
<g transform="matrix(1 0 0 1 540 540)" id="b88b25d8-e4cf-4cba-9b2a-21bb9f68a939"  >
</g>
<g transform="matrix(67.9 0 0 67.9 540 540)" id="0bff6dbe-0ae4-45ae-9a1a-4f728bb20400"  >
<path style="stroke: rgb(0,0,0); stroke-width: 0; stroke-dasharray: none; stroke-linecap: butt; stroke-dashoffset: 0; stroke-linejoin: miter; stroke-miterlimit: 4; fill: rgb(50, 147, 198); fill-rule: nonzero; opacity: 1;" vector-effect="non-scaling-stroke"  transform=" translate(-8.5, -9.58)" d="M 16.417 9.583 C 16.417 13.95543836441039 12.872438364410392 17.5 8.500000000000002 17.5 C 4.127561635589611 17.5 0.583000000000002 13.95543836441039 0.583000000000002 9.583 C 0.583000000000002 5.210561635589609 4.127561635589611 1.6660000000000004 8.500000000000002 1.6660000000000004 C 10.599718950059671 1.666 12.613438878480807 2.500110105173012 14.098164386653897 3.984835613346102 C 15.582889894826987 5.469561121519192 16.417 7.483281049940327 16.417 9.582999999999998 z M 12.297 11.944 C 12.295147427297758 11.886620514017089 12.28295187505869 11.830046702241404 12.261000000000001 11.777000000000001 C 12.228580041262422 11.702289895609995 12.18089238594673 11.63518655205863 12.121 11.580000000000002 L 11.737 11.195000000000002 L 11.626 11.086000000000002 L 11.623999999999999 11.084000000000001 L 9.162 8.62 L 9.159 8.614999999999998 L 8.874 8.329999999999998 L 8.073 9.130999999999998 C 7.9239723814483725 9.288223927142008 7.7342847927701 9.401067273691492 7.525 9.456999999999999 C 7.169028437288767 9.549831314256037 6.790221142660036 9.45822677521797 6.516 9.213 L 6.506 9.203 L 6.489 9.187999999999999 L 6.314 9.012999999999998 C 6.13463790734692 8.842436288535518 6.017428845865559 8.616817644662987 5.981 8.371999999999998 C 5.955682939706252 8.199372156367309 5.970046737739752 8.023244632861294 6.023 7.856999999999998 C 6.076548159422002 7.6893459791968395 6.16556515998967 7.535186269401491 6.284 7.4049999999999985 L 6.292 7.394999999999999 L 6.305 7.381999999999999 L 6.898 6.788999999999999 L 5.615 5.480999999999999 L 3.164 7.970999999999999 L 3.785 8.556999999999999 L 4.398 9.168999999999999 C 4.364201847456095 9.319842944924472 4.353413163746761 9.474930273246159 4.366 9.629 C 4.3804366231656955 9.803929697859482 4.417063851414812 9.976312891362204 4.475 10.142 C 4.542034842932462 10.334259001262533 4.6316623238192465 10.517877847873287 4.741999999999999 10.689 C 4.8721121369659475 10.890414997700264 5.024029501165405 11.076874279145954 5.195 11.245 L 8.67 14.72 C 8.715615372931175 14.767218658644053 8.770869171662731 14.80405452446509 8.832 14.828000000000001 C 8.884556758560954 14.846776716399049 8.940235758924931 14.855264368893558 8.996 14.853000000000002 C 9.067000957687975 14.847535240058814 9.13353362554165 14.816225749304143 9.183 14.765000000000002 L 9.354 14.595000000000002 C 9.391925876259423 14.552307422429891 9.418416762940142 14.500701799025892 9.431 14.445000000000002 C 9.443143759669958 14.390926639059135 9.442458814491514 14.334761134426705 9.428999999999998 14.281000000000002 C 9.407032708376772 14.205255319567684 9.364036121123123 14.137292971973203 9.304999999999998 14.085000000000003 L 8.884999999999998 13.661000000000003 C 8.858664935674817 13.637035261365398 8.843406474125914 13.603251124946606 8.842838352814086 13.567648856072118 C 8.84227023150226 13.53204658719763 8.856442981564491 13.497792803785044 8.881999999999998 13.473000000000003 L 8.965999999999998 13.405000000000003 C 9.000193695252179 13.371589912022836 9.054806304747814 13.371589912022836 9.088999999999997 13.405000000000003 L 9.728999999999997 14.033000000000003 Q 10.043999999999997 14.348000000000003 10.287999999999997 14.132000000000003 L 10.457999999999997 13.961000000000004 C 10.48387151261315 13.934780436753817 10.506073242815342 13.905178129817564 10.523999999999997 13.873000000000005 C 10.544642256699841 13.83499003283669 10.554984464997041 13.792242238541599 10.553999999999997 13.749000000000004 C 10.552014670447921 13.69309152725439 10.537308682385085 13.638371571671746 10.510999999999997 13.589000000000004 C 10.472706619490353 13.517766968284505 10.423055267826003 13.453253987550553 10.363999999999997 13.398000000000003 L 9.745999999999997 12.793000000000003 C 9.692716666934198 12.73985982264921 9.692270188414025 12.653689468255727 9.744999999999997 12.600000000000003 L 9.806999999999997 12.537000000000003 C 9.831031568260983 12.512302545358367 9.864192818721095 12.498621410442924 9.898647977703998 12.49918935262396 C 9.9331031366869 12.499757294804997 9.965795467887183 12.514523928319239 9.988999999999997 12.540000000000003 L 10.658999999999997 13.223000000000003 C 10.681999999999997 13.247000000000002 10.712999999999997 13.277000000000003 10.752999999999997 13.313000000000002 C 10.791285535045139 13.348855750566663 10.836095738159942 13.377031863131275 10.884999999999996 13.396000000000003 C 10.935092899820699 13.41606488505578 10.989578275057701 13.422616923850104 11.042999999999996 13.415000000000003 C 11.110197344716624 13.400648302212954 11.170912149508023 13.364851134070047 11.215999999999996 13.313000000000002 L 11.431999999999995 13.097000000000003 C 11.45787151261315 13.070780436753816 11.48007324281534 13.041178129817563 11.497999999999996 13.009000000000004 C 11.518686132414068 12.971006935222105 11.529031214725883 12.928247261666602 11.527999999999995 12.885000000000003 C 11.5260200647239 12.830292053616487 11.512022216039494 12.776690535483521 11.486999999999995 12.728000000000003 C 11.455771686548278 12.663243354031376 11.412696418777685 12.604905196105847 11.359999999999994 12.556000000000003 L 10.713999999999993 11.924000000000003 C 10.681703846144726 11.891751678019288 10.663639251134422 11.84793093204657 10.663827067853068 11.802291469415037 C 10.664014884571717 11.756652006783503 10.682439526209503 11.712981422278473 10.714999999999993 11.681000000000003 L 10.738999999999992 11.654000000000003 C 10.766278586382322 11.626617959900354 10.80366374008391 11.611731621638919 10.842298002250953 11.61286792346736 C 10.880932264417993 11.614004225295803 10.917377883712339 11.63106205688065 10.942999999999993 11.660000000000004 L 11.485999999999992 12.214000000000004 C 11.500999999999992 12.229000000000005 11.525999999999991 12.254000000000003 11.563999999999991 12.288000000000004 C 11.603593432784411 12.323934956712671 11.648444101923824 12.353610587421457 11.696999999999992 12.376000000000003 C 11.749239035709879 12.400008272669542 11.806624803853849 12.410660720648364 11.863999999999992 12.407000000000004 C 11.935415441210154 12.397733288980936 12.000916983435475 12.362490611370573 12.047999999999991 12.308000000000003 L 12.21899999999999 12.137000000000004 C 12.23781213303107 12.115724985835403 12.25393339841234 12.092214807154386 12.26699999999999 12.067000000000004 C 12.28729494931555 12.02889542861641 12.29729117659929 11.986152939541103 12.29599999999999 11.943000000000003 z M 13.769 7.925000000000001 L 11.329 5.485000000000001 L 10.424000000000001 6.3900000000000015 C 10.107611672586298 6.323804330128016 9.786717552036036 6.281352712096888 9.464 6.263000000000003 C 9.282567711772503 6.252678392374463 9.100587838194745 6.257696219770908 8.920000000000003 6.278000000000001 C 8.74419247379991 6.297775868060858 8.571728449299805 6.340471640208057 8.407000000000002 6.405000000000001 C 8.244654601137144 6.4679206434530485 8.097190995072092 6.563959296825669 7.974000000000002 6.687000000000001 L 6.8 7.862 L 6.798 7.864 C 6.745187622491092 7.921180726025541 6.7052860454512 7.9890475109053565 6.681 8.063 L 6.68 8.068000000000001 C 6.658849784075483 8.135888419990835 6.653379117038143 8.207690924855921 6.664 8.278000000000002 C 6.6815583510599845 8.373563522296044 6.730047817598047 8.460704012886184 6.802 8.526000000000002 L 6.9719999999999995 8.696000000000002 C 7.024513821636574 8.743397084305682 7.088148545779342 8.776762318045405 7.156999999999999 8.793000000000001 L 7.160999999999999 8.794 C 7.22643621982156 8.808338191721747 7.294370872650847 8.806622670185654 7.358999999999999 8.789 C 7.446845378350718 8.762459936075421 7.5257139380754 8.712302299408409 7.586999999999999 8.644 L 8.631 7.6 C 8.765626864177397 7.465870458243081 8.983373135822603 7.465870458243081 9.118 7.6 L 12.11 10.597 L 12.149999999999999 10.636999999999999 L 12.229999999999999 10.517 C 12.33775239095204 10.349914522678123 12.42536113174013 10.170669053019736 12.490999999999998 9.982999999999999 C 12.547782082907194 9.819498155883533 12.58373200599553 9.64949197754056 12.597999999999997 9.476999999999999 C 12.604333947795391 9.392451794636505 12.604333947795391 9.307548205363492 12.597999999999997 9.222999999999999 C 12.594092343473234 9.173788774651838 12.60091619496458 9.124315851339583 12.617999999999997 9.078 z M 10.657 12.791 L 10.661 12.788 C 10.649746729645853 12.795971311464989 10.63806231304184 12.803315801901798 10.626 12.81 C 10.636051139956075 12.802905774033485 10.646393438858311 12.796233323128817 10.657 12.790000000000001 z" stroke-linecap="round" />
</g>
</svg>